<svg id="Scalio" xmlns="http://www.w3.org/2000/svg" xmlns:xlink="http://www.w3.org/1999/xlink" viewBox="0 0 1300 774.36"><defs><style>.cls-1,.cls-2{fill:#efefef;}.cls-1{opacity:0.55;}.cls-3{fill:url(#linear-gradient);}.cls-4{fill:url(#linear-gradient-2);}.cls-5{fill:url(#linear-gradient-3);}.cls-6{fill:#7ec575;}.cls-7{fill:#44a147;}.cls-8{fill:#0c713a;}.cls-9{fill:#1e431e;}</style><linearGradient id="linear-gradient" x1="794.89" y1="1855.82" x2="899.12" y2="1751.6" gradientTransform="translate(0 -1239)" gradientUnits="userSpaceOnUse"><stop offset="0.1" stop-color="#0095d5"/><stop offset="0.3" stop-color="#238ad9"/><stop offset="0.62" stop-color="#557bde"/><stop offset="0.86" stop-color="#7472e2"/><stop offset="1" stop-color="#806ee3"/></linearGradient><linearGradient id="linear-gradient-2" x1="751.61" y1="1627.95" x2="812.14" y2="1567.41" gradientTransform="translate(0 -1239)" gradientUnits="userSpaceOnUse"><stop offset="0.12" stop-color="#0095d5"/><stop offset="0.42" stop-color="#3c83dc"/><stop offset="0.7" stop-color="#6d74e1"/><stop offset="0.83" stop-color="#806ee3"/></linearGradient><linearGradient id="linear-gradient-3" x1="699" y1="1786.44" x2="904.28" y2="1581.16" gradientTransform="translate(0 -1239)" gradientUnits="userSpaceOnUse"><stop offset="0.11" stop-color="#c757bc"/><stop offset="0.21" stop-color="#d0609a"/><stop offset="0.43" stop-color="#e1725c"/><stop offset="0.6" stop-color="#ee7e2f"/><stop offset="0.74" stop-color="#f58613"/><stop offset="0.82" stop-color="#f88909"/></linearGradient></defs><title>scalio-bazel-kotlin</title><g id="scalio-2" data-name="scalio"><g id="mountains"><polygon class="cls-1" points="1082 681.41 711.76 83 341.52 681.41 1082 681.41"/><polygon class="cls-2" points="829.53 681.41 522.26 184.78 215 681.41 829.53 681.41"/></g></g><g id="kotlin"><polygon id="_Path_" data-name="&lt;Path&gt;" class="cls-3" points="736.16 565.25 846.83 454.58 956.77 565.25 736.16 565.25"/><polygon class="cls-4" points="736.16 344.64 846.83 344.64 736.16 464.14 736.16 344.64"/><polygon class="cls-5" points="846.83 344.64 736.16 461.19 736.16 565.25 846.83 454.58 956.77 344.64 846.83 344.64"/></g><g id="bazel"><path class="cls-6" d="M403.89,339l58.76,58.76-58.76,58.75-58.76-58.76Z"/><path class="cls-7" d="M345.12,397.75v58.75l58.76,58.76V456.51Z"/><path class="cls-6" d="M521.41,339l58.76,58.76-58.76,58.75-58.76-58.76Z"/><path class="cls-7" d="M580.17,397.75v58.75l-58.76,58.76V456.51Z"/><path class="cls-7" d="M462.65,397.75l58.75,58.75-58.76,58.76-58.75-58.76Z"/><path class="cls-8" d="M462.65,515.28V574l-58.76-58.76V456.51Z"/><path class="cls-9" d="M462.65,515.28l58.75-58.77v58.76L462.64,574V515.28h0Z"/></g></svg>